<?xml version="1.0" encoding="utf-8"?>
<!-- Generator: Adobe Illustrator 25.0.0, SVG Export Plug-In . SVG Version: 6.00 Build 0)  -->
<svg version="1.1" id="Capa_1" xmlns="http://www.w3.org/2000/svg" xmlns:xlink="http://www.w3.org/1999/xlink" x="0px" y="0px"
	 viewBox="0 0 1920 1080" style="enable-background:new 0 0 1920 1080;" xml:space="preserve">
<style type="text/css">
	.st0{fill:#FFFFFF;}
</style>
<g>
	<g>
		<path class="st0" d="M324.5,225.8c-8.2,0-15.4,0.3-21.7,0.9c3.2-0.2,6.5-0.4,10.1-0.5c-23.9,1.1-38.9,9.4-42.7,17.7
			c-6.9,15.1,17.4,46.2,45.7,82.2C359.4,381.5,419,457.4,419,540.3c0,83-59.7,158.7-103.2,214c-28.1,35.6-52.3,66.4-45.6,81.4
			c3.4,7.5,17.6,16.1,38,18c5,0.3,10.4,0.5,16.4,0.5c173.5,0,314.2-140.7,314.2-314.2S498.1,225.8,324.5,225.8z"/>
		<path class="st0" d="M275.6,850.6L275.6,850.6c-4.4-1-8.1-2.2-11.1-3.9l-0.1,0h0c-3.6-2-6.2-4.5-7.6-7.8
			c-8.6-19.3,14.5-48.7,46.6-89.4C346.2,695.1,405,620.5,405,540.3c0-80.2-58.6-154.9-101.4-209.5c-32.2-41.1-55.5-70.8-46.6-90.2
			c1.7-3.7,4.6-6.4,8.8-8.4h0l0.1,0c1.3-0.6,2.8-1.2,4.4-1.7l0,0l0,0c1.7-0.5,3.6-1,5.6-1.4l3.5-0.9C124.1,247.4,4,379.7,4,540
			c0,160.9,121,293.6,277,312L275.6,850.6z"/>
	</g>
	<g>
		<g>
			<path class="st0" d="M841.8,588.2c-16.8-9.2-30-21.9-39.6-38.1c-9.6-16.2-14.4-34.3-14.4-54.3c0-20,4.8-38.1,14.4-54.3
				c9.6-16.2,22.8-28.9,39.6-38.1c16.8-9.2,35.7-13.8,56.7-13.8c20.8,0,39.6,4.6,56.4,13.8c16.8,9.2,30,21.9,39.5,38
				c9.5,16.1,14.2,34.3,14.2,54.5s-4.8,38.3-14.2,54.4c-9.5,16.1-22.7,28.8-39.5,38c-16.8,9.2-35.6,13.8-56.4,13.8
				C877.5,602,858.6,597.4,841.8,588.2z M939.6,565.2c12.2-6.9,21.8-16.5,28.8-28.6c7-12.2,10.5-25.8,10.5-40.8s-3.5-28.6-10.5-40.8
				c-7-12.2-16.6-21.7-28.8-28.6c-12.2-6.9-25.9-10.4-41.1-10.4c-15.2,0-29,3.5-41.4,10.4c-12.4,6.9-22.1,16.5-29.1,28.6
				s-10.5,25.8-10.5,40.8c0,15,3.5,28.6,10.5,40.8c7,12.2,16.7,21.7,29.1,28.6c12.4,6.9,26.2,10.4,41.4,10.4
				C913.7,575.6,927.4,572.1,939.6,565.2z"/>
			<path class="st0" d="M1181.4,458.2c11.8,11.6,17.7,28.5,17.7,50.9v90.5h-28.5v-87.2c0-15.2-3.7-26.7-11-34.4
				c-7.3-7.7-17.8-11.6-31.5-11.6c-15.4,0-27.6,4.5-36.5,13.5s-13.3,21.9-13.3,38.7v81h-28.5V442.3h27.3v23.7
				c5.7-8.1,13.5-14.3,23.3-18.7c9.8-4.4,20.9-6.5,33.4-6.5C1153.8,440.9,1169.6,446.6,1181.4,458.2z"/>
			<path class="st0" d="M1252.8,391.9h90.8c22.2,0,41.8,4.3,59.1,12.9c17.2,8.6,30.6,20.8,40.1,36.5s14.2,33.9,14.2,54.5
				c0,20.6-4.8,38.7-14.2,54.4c-9.5,15.7-22.8,27.9-40.1,36.5c-17.2,8.6-36.9,12.9-59.1,12.9h-90.8V391.9z M1341.8,567
				c15.2,0,28.6-2.9,40.2-8.8s20.5-14.1,26.7-24.9c6.2-10.8,9.3-23.3,9.3-37.5s-3.1-26.8-9.3-37.5c-6.2-10.8-15.1-19.1-26.7-24.9
				c-11.6-5.8-25-8.8-40.2-8.8h-50.4V567H1341.8z"/>
			<path class="st0" d="M1642.7,532.3h-124.3c2.2,11.7,7.9,20.9,17.1,27.8s20.6,10.2,34.3,10.2c17.4,0,31.8-5.7,43-17.2l19.9,22.8
				c-7.1,8.5-16.1,14.9-27,19.3c-10.9,4.3-23.2,6.5-36.8,6.5c-17.4,0-32.7-3.5-46-10.4c-13.3-6.9-23.5-16.6-30.7-28.9
				s-10.8-26.4-10.8-42c0-15.4,3.5-29.3,10.5-41.7c7-12.4,16.8-22,29.2-28.9c12.5-6.9,26.5-10.4,42.1-10.4
				c15.4,0,29.2,3.4,41.4,10.2s21.7,16.4,28.5,28.8c6.8,12.4,10.2,26.7,10.2,42.9C1643.3,523.8,1643.1,527.5,1642.7,532.3z
				 M1533.1,479.6c-8.2,7-13.2,16.4-15,28h89.9c-1.6-11.5-6.4-20.8-14.5-27.9c-8.1-7.1-18.2-10.7-30.3-10.7
				C1551.3,469,1541.3,472.6,1533.1,479.6z"/>
			<path class="st0" d="M1788.6,456.1c12.4,11.2,18.6,28,18.6,50.6v92.9h-35v-19.3c-4.6,6.9-11,12.2-19.4,15.9
				c-8.4,3.7-18.6,5.5-30.4,5.5s-22.3-2-31.2-6.1s-15.8-9.7-20.6-16.9c-4.8-7.2-7.3-15.4-7.3-24.5c0-14.2,5.3-25.7,15.9-34.3
				c10.6-8.6,27.2-12.9,50-12.9h40.9v-2.4c0-11.1-3.3-19.6-9.9-25.5c-6.6-5.9-16.5-8.9-29.5-8.9c-8.9,0-17.7,1.4-26.3,4.1
				c-8.6,2.8-15.9,6.6-21.8,11.6l-14.5-27c8.3-6.3,18.3-11.2,30-14.5c11.7-3.4,24-5,37.1-5C1758.3,439.4,1776.2,445,1788.6,456.1z
				 M1754.7,568.3c7.2-4.2,12.3-10.3,15.3-18.2v-18.4h-38.3c-21.4,0-32.1,7-32.1,21.1c0,6.7,2.7,12.1,8,16c5.3,4,12.8,5.9,22.3,5.9
				C1739.2,574.7,1747.5,572.6,1754.7,568.3z"/>
			<path class="st0" d="M1854.6,379.4h37.1v220.2h-37.1V379.4z"/>
		</g>
		<g>
			<g>
				<path class="st0" d="M923.5,701.8h-26.2l-5.4,12.3h-7.3l22.3-49.3h7l22.4,49.3H929L923.5,701.8z M921.1,696.1L910.4,672
					l-10.6,24.2H921.1z"/>
				<path class="st0" d="M977.2,689.1h6.8v19.2c-2.4,2-5.3,3.6-8.5,4.7s-6.6,1.6-10.2,1.6c-5,0-9.5-1.1-13.5-3.3
					c-4-2.2-7.1-5.2-9.4-9c-2.3-3.8-3.4-8.1-3.4-12.9s1.1-9.1,3.4-13c2.3-3.8,5.4-6.9,9.4-9c4-2.2,8.5-3.2,13.6-3.2
					c4,0,7.5,0.7,10.8,1.9s6,3.2,8.2,5.7l-4.4,4.4c-4-3.8-8.7-5.7-14.3-5.7c-3.8,0-7.1,0.8-10.1,2.4s-5.3,3.9-7,6.8
					c-1.7,2.9-2.5,6.1-2.5,9.8c0,3.6,0.8,6.8,2.5,9.7s4,5.2,7,6.8c3,1.7,6.3,2.5,10,2.5c4.4,0,8.3-1.1,11.6-3.2L977.2,689.1
					L977.2,689.1z"/>
				<path class="st0" d="M1033.2,708v6.1h-35.8v-49.3h34.8v6.1h-27.8v15.2h24.7v6h-24.7V708H1033.2z"/>
				<path class="st0" d="M1087,664.8v49.3h-5.8l-29.6-36.8v36.8h-7.1v-49.3h5.8l29.6,36.8v-36.8H1087z"/>
				<path class="st0" d="M1110.5,711.4c-4-2.2-7.1-5.2-9.3-9c-2.2-3.8-3.4-8.1-3.4-12.9s1.1-9.1,3.4-12.9s5.4-6.8,9.4-9
					c4-2.2,8.5-3.3,13.4-3.3c3.8,0,7.4,0.7,10.6,1.9s5.9,3.2,8.2,5.7l-4.6,4.4c-3.7-3.9-8.3-5.8-13.9-5.8c-3.7,0-7,0.8-9.9,2.5
					c-3,1.7-5.3,3.9-6.9,6.8c-1.7,2.9-2.5,6.1-2.5,9.7s0.8,6.8,2.5,9.7s4,5.2,6.9,6.8c3,1.7,6.3,2.5,9.9,2.5c5.5,0,10.1-2,13.9-5.9
					l4.6,4.4c-2.2,2.5-5,4.5-8.2,5.8s-6.8,2-10.6,2C1118.9,714.7,1114.5,713.6,1110.5,711.4z"/>
				<path class="st0" d="M1152.8,664.8h7.1v49.3h-7.1V664.8z"/>
				<path class="st0" d="M1206,701.8h-26.2l-5.4,12.3h-7.3l22.3-49.3h7l22.4,49.3h-7.4L1206,701.8z M1203.6,696.1l-10.6-24.2
					l-10.6,24.2H1203.6z"/>
				<path class="st0" d="M1245.1,664.8h20.8c5.2,0,9.8,1,13.9,3.1c4,2.1,7.2,5,9.4,8.7c2.2,3.7,3.3,8,3.3,12.9
					c0,4.8-1.1,9.1-3.3,12.9c-2.2,3.7-5.4,6.6-9.4,8.7c-4,2.1-8.7,3.1-13.9,3.1h-20.8V664.8z M1265.5,708c4,0,7.5-0.8,10.5-2.3
					s5.4-3.7,7-6.5c1.6-2.8,2.5-6,2.5-9.7s-0.8-6.9-2.5-9.7c-1.7-2.8-4-5-7-6.5c-3-1.5-6.5-2.3-10.5-2.3h-13.3v37.1L1265.5,708
					L1265.5,708z"/>
				<path class="st0" d="M1339.1,708v6.1h-35.8v-49.3h34.8v6.1h-27.8v15.2h24.7v6h-24.7V708H1339.1z"/>
				<path class="st0" d="M1415.2,714.1l-0.1-35.9l-17.8,30h-3.2l-17.8-29.7v35.7h-6.8v-49.3h5.8l20.6,34.7l20.3-34.7h5.8l0.1,49.3
					L1415.2,714.1L1415.2,714.1z"/>
				<path class="st0" d="M1468.2,701.8H1442l-5.4,12.3h-7.3l22.3-49.3h7l22.4,49.3h-7.4L1468.2,701.8z M1465.7,696.1l-10.6-24.2
					l-10.6,24.2H1465.7z"/>
				<path class="st0" d="M1521.3,714.1l-10.6-15.2c-1.3,0.1-2.3,0.1-3.1,0.1h-12.2v15h-7.1v-49.3h19.2c6.4,0,11.4,1.5,15.1,4.6
					s5.5,7.3,5.5,12.6c0,3.8-0.9,7-2.8,9.7c-1.9,2.7-4.6,4.6-8,5.8l11.7,16.6L1521.3,714.1L1521.3,714.1z M1517.6,690.2
					c2.3-1.9,3.5-4.7,3.5-8.2s-1.2-6.3-3.5-8.2s-5.8-2.8-10.2-2.8h-12v22.2h12C1511.8,693.1,1515.2,692.1,1517.6,690.2z"/>
				<path class="st0" d="M1555.7,692.2l-9,9.2v12.8h-7.1v-49.3h7.1v27.5l26.8-27.5h8l-21.1,22.2l22.4,27.1h-8.2L1555.7,692.2z"/>
				<path class="st0" d="M1626,708v6.1h-35.8v-49.3h34.8v6.1h-27.8v15.2h24.7v6h-24.7V708H1626z"/>
				<path class="st0" d="M1647.2,670.9h-16.9v-6.1h40.8v6.1h-16.9v43.2h-7V670.9z"/>
				<path class="st0" d="M1678.8,664.8h7.1v49.3h-7.1V664.8z"/>
				<path class="st0" d="M1743.1,664.8v49.3h-5.8l-29.6-36.8v36.8h-7.1v-49.3h5.8l29.6,36.8v-36.8H1743.1z"/>
				<path class="st0" d="M1792.1,689.1h6.8v19.2c-2.4,2-5.3,3.6-8.5,4.7s-6.6,1.6-10.2,1.6c-5,0-9.5-1.1-13.5-3.3
					c-4-2.2-7.1-5.2-9.4-9s-3.4-8.1-3.4-12.9s1.1-9.1,3.4-13c2.3-3.8,5.4-6.9,9.4-9c4-2.2,8.5-3.2,13.6-3.2c3.9,0,7.5,0.7,10.8,1.9
					s5.9,3.2,8.2,5.7l-4.4,4.4c-3.9-3.8-8.7-5.7-14.3-5.7c-3.8,0-7.1,0.8-10.1,2.4s-5.3,3.9-7,6.8c-1.7,2.9-2.5,6.1-2.5,9.8
					c0,3.6,0.8,6.8,2.5,9.7c1.7,2.9,4,5.2,7,6.8c3,1.7,6.3,2.5,10,2.5c4.4,0,8.3-1.1,11.6-3.2L1792.1,689.1L1792.1,689.1z"/>
			</g>
		</g>
	</g>
</g>
</svg>
