<?xml version="1.0" encoding="utf-8"?>
<!-- Generator: Adobe Illustrator 25.0.0, SVG Export Plug-In . SVG Version: 6.00 Build 0)  -->
<svg version="1.1" id="Capa_1" xmlns="http://www.w3.org/2000/svg" xmlns:xlink="http://www.w3.org/1999/xlink" x="0px" y="0px"
	 viewBox="0 0 1920 1080" style="enable-background:new 0 0 1920 1080;" xml:space="preserve">
<style type="text/css">
	.st0{fill:#FFFFFF;}
</style>
<g>
	<g>
		<path class="st0" d="M324.53,225.78c-8.17,0-15.38,0.31-21.68,0.93c3.18-0.2,6.55-0.37,10.09-0.54
			c-23.94,1.11-38.91,9.42-42.69,17.67c-6.94,15.15,17.44,46.22,45.68,82.2c43.51,55.45,103.1,131.39,103.1,214.25
			c0,82.95-59.68,158.69-103.25,213.99c-28.06,35.61-52.3,66.37-45.59,81.43c3.35,7.52,17.61,16.08,37.96,18
			c4.97,0.33,10.41,0.5,16.38,0.5c173.54,0,314.22-140.68,314.22-314.22S498.07,225.78,324.53,225.78z"/>
		<path class="st0" d="M275.6,850.56l-0.03-0.01c-4.36-0.98-8.07-2.22-11.09-3.86l-0.06-0.03l0.02,0c-3.59-1.96-6.18-4.48-7.65-7.79
			c-8.61-19.35,14.54-48.73,46.59-89.4c42.87-54.41,101.58-128.92,101.58-209.18c0-80.17-58.63-154.89-101.44-209.45
			c-32.24-41.09-55.54-70.77-46.63-90.23c1.71-3.73,4.65-6.42,8.79-8.4l-0.02,0l0.09-0.03c1.34-0.64,2.81-1.21,4.4-1.71l0.03-0.01
			l0.02-0.01c1.71-0.54,3.58-1,5.58-1.4l3.45-0.87C124.08,247.39,4,379.67,4,540c0,160.93,120.99,293.6,276.97,312.02L275.6,850.56z
			"/>
	</g>
	<g>
		<g>
			<path class="st0" d="M841.78,588.19c-16.82-9.2-30.02-21.91-39.62-38.13c-9.6-16.22-14.39-34.32-14.39-54.3
				c0-19.98,4.79-38.08,14.39-54.31c9.59-16.22,22.8-28.93,39.62-38.13c16.81-9.2,35.71-13.8,56.68-13.8
				c20.77,0,39.56,4.6,56.38,13.8c16.81,9.2,29.97,21.86,39.47,37.98c9.5,16.13,14.24,34.27,14.24,54.45
				c0,20.18-4.75,38.33-14.24,54.45c-9.5,16.13-22.65,28.79-39.47,37.98c-16.82,9.2-35.61,13.8-56.38,13.8
				C877.49,601.99,858.59,597.39,841.78,588.19z M939.56,565.2c12.17-6.92,21.76-16.47,28.79-28.64
				c7.02-12.17,10.53-25.77,10.53-40.8c0-15.03-3.51-28.64-10.53-40.8c-7.02-12.17-16.62-21.71-28.79-28.64
				c-12.17-6.92-25.87-10.39-41.1-10.39c-15.24,0-29.04,3.46-41.4,10.39c-12.37,6.93-22.06,16.47-29.08,28.64
				c-7.02,12.17-10.53,25.77-10.53,40.8c0,15.04,3.51,28.64,10.53,40.8c7.02,12.17,16.72,21.71,29.08,28.64
				c12.36,6.93,26.16,10.39,41.4,10.39C913.69,575.58,927.39,572.12,939.56,565.2z"/>
			<path class="st0" d="M1181.41,458.22c11.77,11.57,17.66,28.54,17.66,50.89v90.51h-28.49v-87.24c0-15.23-3.66-26.71-10.98-34.42
				c-7.32-7.72-17.8-11.57-31.46-11.57c-15.43,0-27.6,4.5-36.5,13.5c-8.9,9-13.35,21.91-13.35,38.73v81.01h-28.49V442.34h27.3v23.74
				c5.74-8.11,13.5-14.34,23.29-18.7c9.79-4.35,20.92-6.53,33.38-6.53C1153.76,440.86,1169.63,446.64,1181.41,458.22z"/>
			<path class="st0" d="M1252.78,391.89h90.81c22.15,0,41.84,4.3,59.05,12.91c17.21,8.61,30.57,20.77,40.06,36.5
				s14.24,33.88,14.24,54.45c0,20.58-4.75,38.73-14.24,54.45c-9.5,15.73-22.85,27.89-40.06,36.5c-17.21,8.61-36.9,12.91-59.05,12.91
				h-90.81V391.89z M1341.8,566.98c15.23,0,28.64-2.92,40.21-8.75c11.57-5.83,20.48-14.14,26.71-24.93
				c6.23-10.78,9.35-23.29,9.35-37.54s-3.12-26.75-9.35-37.54c-6.23-10.78-15.13-19.09-26.71-24.93
				c-11.57-5.83-24.98-8.75-40.21-8.75h-50.45v142.44H1341.8z"/>
			<path class="st0" d="M1642.7,532.26h-124.34c2.17,11.68,7.86,20.92,17.06,27.75s20.62,10.24,34.27,10.24
				c17.41,0,31.75-5.74,43.03-17.21l19.88,22.85c-7.12,8.51-16.13,14.94-27,19.29c-10.88,4.35-23.15,6.53-36.8,6.53
				c-17.41,0-32.74-3.46-46-10.39c-13.26-6.92-23.49-16.57-30.71-28.93c-7.22-12.36-10.83-26.36-10.83-41.99
				c0-15.43,3.51-29.33,10.54-41.69c7.02-12.36,16.77-22.01,29.23-28.93c12.46-6.92,26.51-10.39,42.14-10.39
				c15.43,0,29.23,3.41,41.4,10.24s21.66,16.42,28.49,28.78c6.83,12.37,10.24,26.66,10.24,42.88
				C1643.29,523.85,1643.09,527.51,1642.7,532.26z M1533.05,479.58c-8.21,7.02-13.21,16.37-14.99,28.04h89.92
				c-1.59-11.47-6.43-20.77-14.54-27.89c-8.11-7.12-18.2-10.68-30.27-10.68C1551.3,469.05,1541.26,472.56,1533.05,479.58z"/>
			<path class="st0" d="M1788.55,456.14c12.36,11.18,18.55,28.04,18.55,50.6v92.88h-35.02v-19.29
				c-4.55,6.93-11.03,12.22-19.44,15.88c-8.41,3.66-18.55,5.49-30.42,5.49s-22.26-2.03-31.16-6.08c-8.9-4.05-15.78-9.69-20.62-16.92
				c-4.85-7.22-7.27-15.38-7.27-24.48c0-14.24,5.29-25.67,15.88-34.27c10.58-8.61,27.25-12.91,50-12.91H1770v-2.37
				c0-11.08-3.32-19.59-9.94-25.52c-6.63-5.94-16.47-8.9-29.53-8.9c-8.9,0-17.66,1.39-26.26,4.15c-8.61,2.77-15.88,6.63-21.81,11.57
				l-14.54-27c8.31-6.33,18.3-11.17,29.97-14.54c11.67-3.36,24.04-5.04,37.09-5.04C1758.33,439.37,1776.19,444.97,1788.55,456.14z
				 M1754.72,568.31c7.22-4.25,12.31-10.34,15.28-18.25v-18.4h-38.28c-21.37,0-32.05,7.02-32.05,21.07c0,6.73,2.67,12.07,8.01,16.02
				c5.34,3.96,12.76,5.94,22.26,5.94C1739.24,574.69,1747.5,572.57,1754.72,568.31z"/>
			<path class="st0" d="M1854.58,379.43h37.09v220.19h-37.09V379.43z"/>
		</g>
		<g>
			<g>
				<path class="st0" d="M923.54,701.75h-26.21l-5.43,12.33h-7.26l22.34-49.32h6.98l22.41,49.32h-7.4L923.54,701.75z M921.07,696.12
					l-10.64-24.17l-10.64,24.17H921.07z"/>
				<path class="st0" d="M977.16,689.14h6.76v19.24c-2.44,2.02-5.28,3.57-8.53,4.65s-6.62,1.62-10.15,1.62
					c-4.98,0-9.47-1.09-13.46-3.28c-3.99-2.18-7.13-5.19-9.41-9.02c-2.28-3.83-3.42-8.14-3.42-12.93c0-4.79,1.14-9.11,3.42-12.96
					c2.28-3.85,5.43-6.86,9.44-9.02c4.02-2.16,8.54-3.24,13.56-3.24c3.95,0,7.53,0.65,10.75,1.94c3.22,1.29,5.95,3.18,8.21,5.67
					l-4.37,4.37c-3.95-3.81-8.71-5.71-14.3-5.71c-3.76,0-7.13,0.81-10.11,2.43c-2.98,1.62-5.32,3.88-7.01,6.76
					c-1.69,2.89-2.54,6.14-2.54,9.76c0,3.57,0.85,6.8,2.54,9.69c1.69,2.89,4.03,5.16,7.01,6.8c2.98,1.65,6.33,2.47,10.04,2.47
					c4.42,0,8.27-1.06,11.56-3.17V689.14z"/>
				<path class="st0" d="M1033.18,707.96v6.13h-35.79v-49.32h34.81v6.13h-27.76v15.15h24.73v5.99h-24.73v15.92H1033.18z"/>
				<path class="st0" d="M1087.01,664.76v49.32h-5.78l-29.59-36.78v36.78h-7.05v-49.32h5.78l29.59,36.78v-36.78H1087.01z"/>
				<path class="st0" d="M1110.51,711.37c-3.97-2.18-7.08-5.19-9.34-9.02c-2.25-3.83-3.38-8.14-3.38-12.93
					c0-4.79,1.13-9.1,3.38-12.93c2.25-3.83,5.38-6.83,9.37-9.02c3.99-2.18,8.46-3.28,13.39-3.28c3.85,0,7.38,0.65,10.57,1.94
					s5.92,3.21,8.17,5.74l-4.58,4.44c-3.71-3.9-8.34-5.85-13.88-5.85c-3.66,0-6.98,0.82-9.94,2.47c-2.96,1.65-5.27,3.91-6.94,6.8
					c-1.67,2.89-2.5,6.12-2.5,9.69c0,3.57,0.83,6.8,2.5,9.69c1.67,2.89,3.98,5.16,6.94,6.8c2.96,1.65,6.27,2.47,9.94,2.47
					c5.5,0,10.12-1.97,13.88-5.92l4.58,4.44c-2.25,2.54-4.99,4.46-8.21,5.78c-3.22,1.32-6.75,1.97-10.6,1.97
					C1118.93,714.65,1114.48,713.56,1110.51,711.37z"/>
				<path class="st0" d="M1152.75,664.76h7.05v49.32h-7.05V664.76z"/>
				<path class="st0" d="M1206.02,701.75h-26.21l-5.42,12.33h-7.26l22.34-49.32h6.98l22.41,49.32h-7.4L1206.02,701.75z
					 M1203.55,696.12l-10.64-24.17l-10.64,24.17H1203.55z"/>
				<path class="st0" d="M1245.12,664.76h20.79c5.21,0,9.84,1.03,13.88,3.1c4.04,2.07,7.17,4.97,9.41,8.7
					c2.23,3.74,3.35,8.02,3.35,12.86c0,4.84-1.12,9.12-3.35,12.86c-2.23,3.73-5.37,6.64-9.41,8.7c-4.04,2.07-8.67,3.1-13.88,3.1
					h-20.79V664.76z M1265.49,707.96c3.99,0,7.5-0.78,10.53-2.33c3.03-1.55,5.37-3.72,7.01-6.52c1.64-2.79,2.47-6.02,2.47-9.69
					s-0.82-6.89-2.47-9.69c-1.65-2.79-3.98-4.97-7.01-6.52c-3.03-1.55-6.54-2.33-10.53-2.33h-13.32v37.06H1265.49z"/>
				<path class="st0" d="M1339.12,707.96v6.13h-35.79v-49.32h34.81v6.13h-27.76v15.15h24.73v5.99h-24.73v15.92H1339.12z"/>
				<path class="st0" d="M1415.22,714.09l-0.07-35.94l-17.83,29.95h-3.24l-17.83-29.74v35.72h-6.76v-49.32h5.78l20.57,34.67
					l20.29-34.67h5.78l0.07,49.32H1415.22z"/>
				<path class="st0" d="M1468.21,701.75h-26.21l-5.42,12.33h-7.26l22.34-49.32h6.98l22.41,49.32h-7.4L1468.21,701.75z
					 M1465.74,696.12l-10.64-24.17l-10.64,24.17H1465.74z"/>
				<path class="st0" d="M1521.33,714.09l-10.64-15.15c-1.32,0.09-2.35,0.14-3.1,0.14h-12.19v15.01h-7.05v-49.32h19.24
					c6.39,0,11.42,1.53,15.08,4.58s5.5,7.26,5.5,12.61c0,3.8-0.94,7.05-2.82,9.72c-1.88,2.68-4.56,4.63-8.03,5.85l11.7,16.56
					H1521.33z M1517.6,690.2c2.35-1.93,3.52-4.67,3.52-8.24c0-3.57-1.17-6.31-3.52-8.21c-2.35-1.9-5.75-2.85-10.22-2.85h-11.98v22.2
					h11.98C1511.84,693.09,1515.25,692.13,1517.6,690.2z"/>
				<path class="st0" d="M1555.65,692.17l-9.02,9.16v12.75h-7.05v-49.32h7.05v27.55l26.78-27.55h8.03l-21.07,22.2l22.41,27.13h-8.24
					L1555.65,692.17z"/>
				<path class="st0" d="M1626.04,707.96v6.13h-35.79v-49.32h34.81v6.13h-27.76v15.15h24.73v5.99h-24.73v15.92H1626.04z"/>
				<path class="st0" d="M1647.25,670.89h-16.91v-6.13h40.8v6.13h-16.91v43.19h-6.98V670.89z"/>
				<path class="st0" d="M1678.82,664.76h7.05v49.32h-7.05V664.76z"/>
				<path class="st0" d="M1743.08,664.76v49.32h-5.78l-29.59-36.78v36.78h-7.05v-49.32h5.78l29.59,36.78v-36.78H1743.08z"/>
				<path class="st0" d="M1792.05,689.14h6.76v19.24c-2.44,2.02-5.28,3.57-8.53,4.65s-6.62,1.62-10.15,1.62
					c-4.98,0-9.47-1.09-13.46-3.28c-3.99-2.18-7.13-5.19-9.41-9.02c-2.28-3.83-3.42-8.14-3.42-12.93c0-4.79,1.14-9.11,3.42-12.96
					c2.28-3.85,5.43-6.86,9.44-9.02c4.02-2.16,8.54-3.24,13.56-3.24c3.95,0,7.53,0.65,10.75,1.94c3.22,1.29,5.95,3.18,8.21,5.67
					l-4.37,4.37c-3.95-3.81-8.71-5.71-14.3-5.71c-3.76,0-7.13,0.81-10.11,2.43c-2.98,1.62-5.32,3.88-7.01,6.76
					c-1.69,2.89-2.54,6.14-2.54,9.76c0,3.57,0.85,6.8,2.54,9.69c1.69,2.89,4.03,5.16,7.01,6.8c2.98,1.65,6.33,2.47,10.04,2.47
					c4.42,0,8.27-1.06,11.56-3.17V689.14z"/>
			</g>
		</g>
	</g>
</g>
<g>
</g>
<g>
</g>
<g>
</g>
<g>
</g>
<g>
</g>
<g>
</g>
<g>
</g>
<g>
</g>
<g>
</g>
<g>
</g>
<g>
</g>
<g>
</g>
<g>
</g>
<g>
</g>
<g>
</g>
</svg>
