<?xml version="1.0" encoding="utf-8"?>
<!-- Generator: Adobe Illustrator 25.0.0, SVG Export Plug-In . SVG Version: 6.00 Build 0)  -->
<svg version="1.1" id="Capa_1" xmlns="http://www.w3.org/2000/svg" xmlns:xlink="http://www.w3.org/1999/xlink" x="0px" y="0px"
	 viewBox="0 0 1080 1080" style="enable-background:new 0 0 1080 1080;" xml:space="preserve">
<style type="text/css">
	.st0{fill:#FFFFFF;}
</style>
<g>
	<rect x="0.14" y="0.21" width="1080" height="1080"/>
</g>
<g>
	<path class="st0" d="M549.36,41c-12.98,0-24.42,0.5-34.43,1.48c5.06-0.31,10.4-0.59,16.03-0.85
		c-38.03,1.77-61.79,14.96-67.79,28.06c-11.02,24.06,27.7,73.41,72.54,130.54c69.1,88.06,163.73,208.65,163.73,340.24
		c0,131.73-94.77,252.01-163.97,339.83c-44.57,56.56-83.06,105.4-72.41,129.32c5.32,11.94,27.96,25.54,60.28,28.58
		c7.89,0.52,16.53,0.8,26.02,0.8c275.59,0,499-223.41,499-499S824.95,41,549.36,41z"/>
	<path class="st0" d="M462.96,1033.19l-0.05-0.02c-6.92-1.55-12.82-3.53-17.61-6.14l-0.1-0.04l0.03,0.01
		c-5.7-3.12-9.82-7.12-12.15-12.37c-13.68-30.72,23.09-77.39,73.99-141.98c68.08-86.4,161.32-204.73,161.32-332.19
		c0-127.32-93.11-245.98-161.1-332.62c-51.2-65.25-88.2-112.4-74.05-143.3c2.71-5.92,7.38-10.2,13.95-13.35l-0.03,0l0.14-0.05
		c2.13-1.01,4.46-1.92,6.99-2.71l0.05-0.02l0.03-0.01c2.72-0.85,5.68-1.58,8.87-2.23l5.48-1.38C222.34,75.32,31.64,285.38,31.64,540
		c0,255.58,192.14,466.26,439.85,495.52L462.96,1033.19z"/>
</g>
<g>
</g>
<g>
</g>
<g>
</g>
<g>
</g>
<g>
</g>
<g>
</g>
<g>
</g>
<g>
</g>
<g>
</g>
<g>
</g>
<g>
</g>
<g>
</g>
<g>
</g>
<g>
</g>
<g>
</g>
</svg>
