<?xml version="1.0" encoding="utf-8"?>
<!-- Generator: Adobe Illustrator 25.0.0, SVG Export Plug-In . SVG Version: 6.00 Build 0)  -->
<svg version="1.1" id="Capa_1" xmlns="http://www.w3.org/2000/svg" xmlns:xlink="http://www.w3.org/1999/xlink" x="0px" y="0px"
	 viewBox="0 0 1080 1080" style="enable-background:new 0 0 1080 1080;" xml:space="preserve">
<style type="text/css">
	.st0{fill:#FFFFFF;}
</style>
<g>
	<path class="st0" d="M549.85,14.98c-13.66,0-25.69,0.52-36.22,1.55c5.32-0.33,10.94-0.62,16.86-0.89
		c-40.01,1.86-65.01,15.74-71.33,29.53c-11.6,25.32,29.14,77.24,76.32,137.35c72.7,92.65,172.27,219.53,172.27,357.98
		c0,138.6-99.71,265.15-172.52,357.55c-46.89,59.51-87.39,110.9-76.18,136.07c5.6,12.57,29.42,26.88,63.42,30.07
		c8.3,0.55,17.39,0.84,27.37,0.84c289.96,0,525.02-235.06,525.02-525.02S839.81,14.98,549.85,14.98z"/>
	<path class="st0" d="M458.94,1058.91l-0.06-0.02c-7.28-1.63-13.49-3.72-18.53-6.46l-0.1-0.05l0.03,0.01
		c-6-3.28-10.33-7.49-12.79-13.01c-14.39-32.32,24.3-81.42,77.84-149.38c71.63-90.91,169.74-215.41,169.74-349.51
		c0-133.96-97.97-258.81-169.5-349.97c-53.87-68.65-92.8-118.26-77.91-150.77c2.85-6.23,7.76-10.73,14.68-14.04l-0.04,0l0.15-0.06
		c2.24-1.07,4.69-2.02,7.36-2.85l0.05-0.02l0.04-0.01c2.86-0.9,5.98-1.67,9.33-2.34l5.76-1.45C205.78,51.08,5.13,272.11,5.13,540
		c0,268.9,202.16,490.58,462.79,521.36L458.94,1058.91z"/>
</g>
<g>
</g>
<g>
</g>
<g>
</g>
<g>
</g>
<g>
</g>
<g>
</g>
<g>
</g>
<g>
</g>
<g>
</g>
<g>
</g>
<g>
</g>
<g>
</g>
<g>
</g>
<g>
</g>
<g>
</g>
</svg>
